#!OML:ASF F:\VICON\USERDATA\INSTALL\rory3\rory3.ASF
:FULLY-SPECIFIED
:DEGREES
582
root 2.03602 28.9678 -0.39307 -165.907 -10.5144 175.005
lowerback 16.23 -0.478549 -3.00504
upperback 3.19536 -1.42837 1.88225
thorax -5.56656 -0.812032 4.01908
lowerneck -19.9195 1.59572 -12.1069
upperneck 37.9683 3.73982 0.300707
head 16.9868 -1.25186 2.66659
rclavicle -2.78299e-015 -1.51076e-014
rhumerus 5.21405 22.0688 -83.8488
rradius 93.1388
rwrist 50.8664
rhand -14.7462 -1.83437
rfingers 7.12502
rthumb 11.4096 -31.5039
lclavicle -2.78299e-015 -1.51076e-014
lhumerus 50.8961 -11.3269 69.7444
lradius 76.9831
lwrist -24.2499
lhand -15.0966 35.303
lfingers 7.12502
lthumb 11.0715 64.991
rfemur -26.5661 -11.5771 27.0591
rtibia 14.2836
rfoot -2.08952 -13.387
rtoes 19.6945
lfemur -72.6789 -2.53534 -31.7781
ltibia 87.0341
lfoot -25.0789 -0.867491
ltoes -6.43043
583
root 2.02497 28.9893 -0.408772 -165.737 -10.6451 175.005
lowerback 16.3362 -0.532087 -2.86872
upperback 2.92103 -1.45998 1.645
thorax -5.92353 -0.804328 3.70322
lowerneck -19.3868 1.62453 -11.6289
upperneck 37.7383 3.51864 0.247025
head 16.7547 -1.25576 2.51121
rclavicle 2.38542e-015 1.35174e-014
rhumerus 4.37895 21.8175 -84.2789
rradius 93.2732
rwrist 50.973
rhand -15.0329 -1.74781
rfingers 7.12502
rthumb 11.133 -31.4325
lclavicle 2.38542e-015 1.35174e-014
lhumerus 50.4861 -11.9684 69.6765
lradius 77.1819
lwrist -24.4294
lhand -14.9874 35.0411
lfingers 7.12502
lthumb 11.1769 64.7234
rfemur -26.6395 -11.5198 26.9826
rtibia 14.2665
rfoot -1.96348 -13.5274
rtoes 19.0742
lfemur -72.668 -2.73025 -31.7602
ltibia 86.8212
lfoot -25.002 -0.730406
ltoes -7.10473
584
root 2.00631 29.0123 -0.43357 -165.646 -10.7584 175.125
lowerback 16.1762 -0.582765 -2.73214
upperback 2.91453 -1.49401 1.6755
thorax -5.84309 -0.823442 3.65954
lowerneck -19.4652 1.57884 -11.7267
upperneck 37.6314 3.51522 0.291041
head 16.7158 -1.24904 2.54946
rclavicle 1.11319e-014 4.45278e-014
rhumerus 4.06762 21.8016 -84.1041
rradius 93.3185
rwrist 50.9566
rhand -15.3993 -1.65949
rfingers 7.12502
rthumb 10.7796 -31.3629
lclavicle 1.11319e-014 4.45278e-014
lhumerus 50.3903 -12.1801 69.8474
lradius 77.3845
lwrist -24.5415
lhand -14.5031 35.096
lfingers 7.12502
lthumb 11.644 64.7524
rfemur -26.6274 -11.5959 27.0238
rtibia 14.244
rfoot -1.79288 -13.5305
rtoes 19.2778
lfemur -72.5566 -2.91092 -31.619
ltibia 86.6038
lfoot -24.973 -0.70758
ltoes -7.09098
585
root 1.98908 29.0389 -0.460156 -165.601 -10.8614 175.129
lowerback 16.1674 -0.615906 -2.69219
upperback 2.8688 -1.52626 1.65636
thorax -5.88591 -0.836007 3.62355
lowerneck -19.5719 1.54141 -11.8814
upperneck 37.6382 3.50985 0.394401
head 16.7402 -1.25676 2.62334
rclavicle -9.14409e-015 8.74653e-015
rhumerus 3.46861 21.5672 -84.1365
rradius 93.4613
rwrist 51.4091
rhand -15.5994 -1.48009
rfingers 7.12502
rthumb 10.5866 -31.1934
lclavicle -9.14409e-015 8.74653e-015
lhumerus 50.1953 -12.5386 69.9908
lradius 77.6078
lwrist -24.7059
lhand -14.6585 35.7568
lfingers 7.12502
lthumb 11.4941 65.4217
rfemur -26.5845 -11.6157 26.8957
rtibia 14.2965
rfoot -1.68697 -13.6735
rtoes 19.8671
lfemur -72.3091 -3.06309 -31.6185
ltibia 86.3405
lfoot -24.947 -0.670573
ltoes -6.69913
586
root 1.97727 29.0635 -0.480288 -165.466 -11.0322 175.02
lowerback 16.0791 -0.721389 -2.81943
upperback 2.94247 -1.69033 1.67403
thorax -5.74201 -0.920783 3.74347
lowerneck -19.9839 1.48704 -12.1108
upperneck 37.5571 3.64357 0.41037
head 16.7876 -1.21629 2.70337
rclavicle -1.19271e-015 1.98785e-014
rhumerus 3.12438 21.4289 -84.1765
rradius 93.6474
rwrist 52.0541
rhand -15.6314 -1.146
rfingers 7.12502
rthumb 10.5558 -30.8609
lclavicle -1.19271e-015 1.98785e-014
lhumerus 50.145 -12.6239 70.1933
lradius 77.7922
lwrist -24.9732
lhand -14.87 36.0454
lfingers 7.12502
lthumb 11.2902 65.7215
rfemur -26.6223 -11.5637 26.6481
rtibia 14.2899
rfoot -1.43423 -13.9877
rtoes 19.9573
lfemur -72.0963 -3.26504 -31.7347
ltibia 86.0419
lfoot -24.9769 -0.599641
ltoes -6.56383
587
root 1.96295 29.0901 -0.499615 -165.294 -11.1655 174.831
lowerback 16.0474 -0.730224 -2.94452
upperback 2.80215 -1.71318 1.51591
thorax -5.8738 -0.917276 3.6523
lowerneck -19.6904 1.46548 -11.7549
upperneck 37.3687 3.49723 0.226646
head 16.6407 -1.23154 2.5288
rclavicle -1.78906e-014 -1.43125e-014
rhumerus 2.3536 21.0308 -84.3942
rradius 93.802
rwrist 52.2435
rhand -15.9159 -0.807969
rfingers 7.12502
rthumb 10.2813 -30.5367
lclavicle -1.78906e-014 -1.43125e-014
lhumerus 49.7927 -13.2069 70.3152
lradius 78.1723
lwrist -25.1604
lhand -14.509 36.1172
lfingers 7.12502
lthumb 11.6383 65.774
rfemur -26.7199 -11.5428 26.311
rtibia 14.3506
rfoot -1.20694 -14.2657
rtoes 20.2579
lfemur -71.8625 -3.42998 -31.9812
ltibia 85.6972
lfoot -25.0481 -0.530165
ltoes -6.59741
588
root 1.94447 29.1229 -0.52374 -165.142 -11.1634 174.721
lowerback 16.0128 -0.790374 -3.06316
upperback 2.78609 -1.81016 1.50471
thorax -5.86085 -0.961524 3.72658
lowerneck -20.1301 1.41388 -11.9253
upperneck 37.3043 3.65367 0.13083
head 16.7088 -1.19448 2.55244
rclavicle 6.0033e-014 -2.46493e-014
rhumerus 2.29608 21.3777 -83.9979
rradius 93.8345
rwrist 51.9047
rhand -16.1188 -0.983872
rfingers 7.12502
rthumb 10.0855 -30.7222
lclavicle 6.0033e-014 -2.46493e-014
lhumerus 49.4562 -13.3333 70.6142
lradius 78.5521
lwrist -25.5496
lhand -14.0541 35.9718
lfingers 7.12502
lthumb 12.0769 65.6033
rfemur -26.855 -11.5336 26.0645
rtibia 14.508
rfoot -0.860281 -14.3695
rtoes 20.2628
lfemur -71.6214 -3.49057 -32.1592
ltibia 85.3338
lfoot -25.0912 -0.465594
ltoes -6.55543
589
root 1.92235 29.1625 -0.547769 -165.019 -11.1598 174.577
lowerback 15.9618 -0.7495 -3.0577
upperback 2.65729 -1.75146 1.2709
thorax -5.98303 -0.922182 3.4628
lowerneck -19.8456 1.36947 -11.6462
upperneck 37.14 3.4302 0.157565
head 16.5711 -1.21998 2.4724
rclavicle -1.63003e-014 2.06736e-014
rhumerus 1.86922 21.3298 -83.783
rradius 93.924
rwrist 51.7135
rhand -16.2129 -1.35689
rfingers 7.12502
rthumb 9.99476 -31.0996
lclavicle -1.63003e-014 2.06736e-014
lhumerus 49.0947 -14.1241 70.8873
lradius 78.8069
lwrist -26.0701
lhand -13.6328 35.7473
lfingers 7.12502
lthumb 12.4831 65.3544
rfemur -26.9185 -11.6289 25.783
rtibia 14.6018
rfoot -0.434964 -14.4439
rtoes 20.3562
lfemur -71.2537 -3.56908 -32.384
ltibia 84.8763
lfoot -25.1019 -0.382661
ltoes -6.58759
590
root 1.89837 29.2066 -0.574446 -164.922 -11.208 174.423
lowerback 15.8989 -0.774267 -3.06678
upperback 2.65039 -1.79163 1.09715
thorax -5.95833 -0.941918 3.28861
lowerneck -19.8331 1.30762 -11.6076
upperneck 36.9147 3.33081 0.266039
head 16.4545 -1.20584 2.49829
rclavicle -8.34896e-015 3.18055e-014
rhumerus 1.60476 21.3124 -83.5537
rradius 93.988
rwrist 51.519
rhand -16.3146 -1.30362
rfingers 7.12502
rthumb 9.89667 -31.051
lclavicle -8.34896e-015 3.18055e-014
lhumerus 48.8957 -14.6496 71.2299
lradius 79.0016
lwrist -26.6301
lhand -13.4963 35.4545
lfingers 7.12502
lthumb 12.6148 65.0536
rfemur -26.9122 -11.7956 25.4706
rtibia 14.6498
rfoot 0.00770603 -14.5268
rtoes 20.5776
lfemur -70.791 -3.69536 -32.6123
ltibia 84.362
lfoot -25.0878 -0.328823
ltoes -6.3644
591
root 1.87448 29.2558 -0.603949 -164.852 -11.1922 174.29
lowerback 15.9098 -0.837797 -3.17021
upperback 2.6056 -1.89511 1.00806
thorax -6.00397 -0.987432 3.2747
lowerneck -19.995 1.308 -11.7373
upperneck 36.8723 3.39938 0.361494
head 16.4612 -1.17427 2.57863
rclavicle -1.35174e-014 -6.36111e-015
rhumerus 1.0426 21.3389 -83.5629
rradius 93.9599
rwrist 51.3224
rhand -16.6421 -0.651281
rfingers 7.12502
rthumb 9.58072 -30.4134
lclavicle -1.35174e-014 -6.36111e-015
lhumerus 48.4423 -14.9324 71.6568
lradius 79.3608
lwrist -27.1536
lhand -13.4451 35.5529
lfingers 7.12502
lthumb 12.6641 65.149
rfemur -26.9298 -11.8336 25.116
rtibia 14.781
rfoot 0.433627 -14.6583
rtoes 20.7831
lfemur -70.2678 -3.76072 -32.8105
ltibia 83.773
lfoot -25.096 -0.354387
ltoes -6.18946
592
root 1.85246 29.3024 -0.631658 -164.718 -11.1095 174.172
lowerback 15.9937 -0.890332 -3.1365
upperback 2.47596 -1.96773 0.754418
thorax -6.19295 -1.0143 3.00595
lowerneck -20.2714 1.2975 -11.7265
upperneck 37.0081 3.325 0.680417
head 16.5888 -1.16198 2.71186
rclavicle -1.98785e-015 7.15625e-015
rhumerus 0.219792 21.0394 -84.0251
rradius 93.8027
rwrist 51.2242
rhand -17.2347 0.398102
rfingers 7.12502
rthumb 9.00888 -29.3895
lclavicle -1.98785e-015 7.15625e-015
lhumerus 47.9647 -15.4725 71.8188
lradius 79.6661
lwrist -27.7035
lhand -13.6268 36.2177
lfingers 7.12502
lthumb 12.489 65.8245
rfemur -26.976 -11.912 24.8261
rtibia 14.7599
rfoot 1.15161 -14.7472
rtoes 20.5907
lfemur -69.8723 -3.77894 -32.9855
ltibia 83.1531
lfoot -25.0377 -0.325336
ltoes -6.14903
